<svg width="196" height="224" viewBox="0 0 196 224" fill="none" xmlns="http://www.w3.org/2000/svg">
<g clip-path="url(#clip0_715_19261)">
<path d="M51.8444 17.873H46.2951L44.9041 21.7533H42.6006L47.8956 7.36816H50.3486L55.6138 21.7533H53.2205L51.8444 17.873ZM46.8635 16.1468H51.276L49.1072 9.83213L46.8635 16.1468Z" fill="white"/>
<path d="M66.9524 16.5166C66.9524 19.7772 65.1875 21.8723 62.4652 21.8723C61.7873 21.9072 61.1132 21.7527 60.5204 21.4264C59.9277 21.1001 59.4404 20.6154 59.1146 20.0281V25.2362H56.9458V11.2641H59.0548V13.0051C59.4008 12.4254 59.8987 11.9482 60.4961 11.6238C61.0936 11.2992 61.7685 11.1393 62.4501 11.1609C65.1724 11.1609 66.9524 13.1969 66.9524 16.5166ZM64.7088 16.5166C64.7088 14.392 63.6019 12.9903 61.8968 12.9903C60.1916 12.9903 59.1146 14.4657 59.1146 16.5166C59.1146 18.5673 60.2364 20.0427 61.8968 20.0427C63.5571 20.0427 64.7088 18.6559 64.7088 16.5166Z" fill="white"/>
<path d="M78.6639 16.5169C78.6639 19.7774 76.8989 21.8726 74.1766 21.8726C73.5013 21.9046 72.8303 21.7488 72.2405 21.4227C71.6507 21.0965 71.1658 20.6134 70.841 20.0283V25.2364H68.6423V11.2644H70.7663V13.0054C71.1112 12.4246 71.6087 11.9466 72.2064 11.6219C72.8041 11.2972 73.4797 11.138 74.1617 11.1611C76.884 11.1611 78.6639 13.1972 78.6639 16.5169ZM76.4203 16.5169C76.4203 14.3923 75.3135 12.9906 73.6083 12.9906C71.903 12.9906 70.8261 14.466 70.8261 16.5169C70.8261 18.5676 71.948 20.043 73.6083 20.043C75.2685 20.043 76.4203 18.6562 76.4203 16.5169Z" fill="white"/>
<path d="M80.4285 7.36816H82.6122V21.7534H80.4285V7.36816Z" fill="white"/>
<path d="M93.9802 18.67C93.7423 19.6623 93.147 20.5358 92.305 21.1274C91.463 21.719 90.4317 21.9888 89.4031 21.8864C86.3069 21.8864 84.3923 19.8355 84.3923 16.5602C84.3923 13.2847 86.3218 11.1306 89.3133 11.1306C92.3048 11.1306 94.1147 13.1962 94.1147 16.3093V17.047H86.636V17.1798C86.6038 17.5653 86.6551 17.9531 86.7864 18.3175C86.9177 18.6819 87.1261 19.0147 87.3976 19.2937C87.6691 19.5727 87.9977 19.7916 88.3615 19.9359C88.7253 20.0801 89.116 20.1466 89.5077 20.1306C90.0235 20.1797 90.5414 20.0625 90.9837 19.7964C91.4261 19.5303 91.7689 19.1299 91.9608 18.6552L93.9802 18.67ZM86.606 15.5421H91.916C91.9368 15.1955 91.8844 14.8484 91.7622 14.5228C91.64 14.1972 91.4505 13.9002 91.2058 13.6506C90.9612 13.4008 90.6667 13.204 90.3409 13.0725C90.0152 12.9409 89.6653 12.8776 89.3133 12.8864C88.958 12.8825 88.6054 12.9483 88.2761 13.0802C87.9468 13.2121 87.6474 13.4073 87.3955 13.6545C87.1434 13.9018 86.9439 14.196 86.8083 14.52C86.6728 14.8441 86.604 15.1915 86.606 15.5421Z" fill="white"/>
<path d="M105.737 7.36896C106.375 7.33739 107.011 7.43778 107.608 7.66368C108.204 7.88958 108.745 8.23597 109.197 8.68062C109.649 9.12527 110.002 9.65841 110.234 10.2455C110.465 10.8327 110.568 11.4611 110.538 12.0902C110.566 12.7265 110.459 13.3616 110.223 13.9546C109.987 14.5475 109.628 15.0852 109.168 15.5327C108.709 15.9803 108.159 16.328 107.556 16.5534C106.951 16.7786 106.307 16.8767 105.662 16.841H102.536V21.7542H100.248V7.36896H105.737ZM102.536 14.9672H105.123C105.527 15.0208 105.936 14.9852 106.323 14.8632C106.71 14.7411 107.065 14.5356 107.36 14.2615C107.657 13.9875 107.888 13.6518 108.036 13.2787C108.186 12.9057 108.248 12.5048 108.22 12.105C108.248 11.7072 108.186 11.3081 108.038 10.9369C107.89 10.5656 107.66 10.2315 107.365 9.95879C107.071 9.68614 106.718 9.48172 106.332 9.36041C105.947 9.2391 105.54 9.20388 105.138 9.25745H102.536V14.9672Z" fill="white"/>
<path d="M111.331 16.5159C111.331 13.211 113.305 11.1306 116.386 11.1306C119.467 11.1306 121.427 13.211 121.427 16.5159C121.427 19.8207 119.482 21.8864 116.386 21.8864C113.29 21.8864 111.331 19.8207 111.331 16.5159ZM119.199 16.5159C119.199 14.2437 118.152 12.9159 116.386 12.9159C114.622 12.9159 113.56 14.2585 113.56 16.5159C113.56 18.7732 114.606 20.1158 116.386 20.1158C118.166 20.1158 119.199 18.788 119.199 16.5159Z" fill="white"/>
<path d="M122.968 16.5157C122.968 13.2698 124.779 11.16 127.456 11.16C128.131 11.1261 128.803 11.2813 129.393 11.6075C129.983 11.9338 130.468 12.418 130.791 13.0042V7.36816H132.975V21.7534H130.851V19.9681C130.526 20.57 130.034 21.0684 129.433 21.4054C128.832 21.7423 128.146 21.9039 127.456 21.8714C124.779 21.8714 122.968 19.7468 122.968 16.5157ZM125.197 16.5157C125.197 18.6698 126.304 20.0418 128.009 20.0418C129.715 20.0418 130.806 18.6402 130.806 16.5157C130.806 14.3911 129.685 12.9894 128.009 12.9894C126.334 12.9894 125.197 14.3763 125.197 16.5157Z" fill="white"/>
<path d="M142.279 14.8797C142.182 14.3049 141.87 13.7868 141.405 13.4285C140.939 13.0704 140.354 12.8984 139.766 12.9469C138.09 12.9469 136.968 14.3338 136.968 16.5174C136.968 18.701 138.09 20.0879 139.78 20.0879C140.359 20.1447 140.939 19.9831 141.403 19.6354C141.866 19.2879 142.179 18.78 142.279 18.2141H144.372C144.241 19.2976 143.685 20.2877 142.825 20.9739C141.965 21.6599 140.867 21.9879 139.766 21.8878C136.774 21.8878 134.755 19.8371 134.755 16.5174C134.755 13.1978 136.729 11.1322 139.751 11.1322C140.862 11.0411 141.966 11.3819 142.827 12.0819C143.687 12.782 144.237 13.7859 144.357 14.8797H142.279Z" fill="white"/>
<path d="M145.719 18.7744C145.719 16.9449 147.14 15.8236 149.667 15.6908L152.584 15.5285V14.6728C152.584 13.5072 151.806 12.8433 150.475 12.8433C149.985 12.7804 149.489 12.8954 149.079 13.167C148.669 13.4385 148.373 13.8478 148.246 14.3187H146.197C146.197 12.4301 148.052 11.0728 150.534 11.0728C153.018 11.0728 154.753 12.4449 154.753 14.5105V21.7547H152.599V20.0285C152.262 20.6137 151.772 21.0989 151.18 21.4337C150.588 21.7684 149.916 21.9404 149.233 21.9317C148.788 21.9728 148.339 21.9217 147.915 21.7817C147.489 21.6417 147.099 21.416 146.77 21.1188C146.439 20.8216 146.174 20.4596 145.992 20.0559C145.812 19.6522 145.719 19.2158 145.719 18.7744ZM152.584 17.8302V17.0187L149.966 17.181C148.651 17.2547 147.918 17.8154 147.918 18.6564C147.918 19.4973 148.68 20.1318 149.862 20.1318C150.195 20.158 150.529 20.1192 150.847 20.0178C151.165 19.9163 151.46 19.7541 151.714 19.5403C151.968 19.3266 152.177 19.0655 152.329 18.7721C152.481 18.4786 152.573 18.1586 152.599 17.8302H152.584Z" fill="white"/>
<path d="M160.841 11.1448C163.204 11.1448 164.894 12.4284 164.938 14.2874H162.89C162.8 13.3579 162.008 12.812 160.78 12.812C159.554 12.812 158.821 13.3432 158.821 14.1546C158.821 14.9661 159.345 15.2022 160.437 15.4825L162.231 15.8809C164.371 16.3972 165.223 17.1792 165.223 18.7137C165.223 20.6022 163.413 21.9005 160.735 21.9005C158.058 21.9005 156.547 20.6316 156.383 18.7137H158.582C158.746 19.7316 159.554 20.2628 160.886 20.2628C162.216 20.2628 163.009 19.7316 163.009 18.9054C163.009 18.0793 162.605 17.9022 161.513 17.6218L159.614 17.1644C157.699 16.7071 156.727 15.689 156.727 14.2874C156.683 12.4137 158.372 11.1448 160.841 11.1448Z" fill="white"/>
<path d="M169.936 8.77002V11.2488H171.955V12.9602H169.936V18.7438C169.936 19.6438 170.339 20.0569 171.222 20.0569H171.94V21.7536C171.54 21.8226 171.134 21.8522 170.728 21.8422C168.574 21.8422 167.737 21.0455 167.737 19.0094V12.975H166.241V11.2635H167.737V8.77002H169.936Z" fill="white"/>
<path d="M177.818 11.1448C180.182 11.1448 181.871 12.4284 181.916 14.2874H179.867C179.778 13.3579 178.985 12.812 177.758 12.812C176.531 12.812 175.798 13.3432 175.798 14.1546C175.798 14.9661 176.323 15.2022 177.414 15.4825L179.209 15.8809C181.348 16.3972 182.2 17.1792 182.2 18.7137C182.2 20.6022 180.39 21.9005 177.788 21.9005C175.186 21.9005 173.54 20.5727 173.391 18.6989H175.545C175.709 19.7169 176.517 20.248 177.848 20.248C179.179 20.248 179.972 19.7169 179.972 18.8906C179.972 18.0645 179.568 17.8874 178.476 17.6071L176.531 17.1498C174.617 16.6923 173.645 15.6744 173.645 14.2727C173.66 12.4137 175.35 11.1448 177.818 11.1448Z" fill="white"/>
<path d="M31.7458 27.6774C31.2869 28.7543 30.5601 29.6996 29.6325 30.4258C28.9545 30.9515 28.1831 31.3476 27.3577 31.5942C26.076 31.8995 24.7586 32.0335 23.4407 31.9925H8.91679C7.60334 32.0344 6.2902 31.9004 5.01324 31.5942C4.17794 31.352 3.39686 30.9554 2.71149 30.4258C1.81108 29.7209 1.09938 28.8092 0.638574 27.7703C0.141756 26.2817 -0.0682538 24.7146 0.0193896 23.1498V8.78379C-0.052211 7.24913 0.16222 5.71454 0.652034 4.25622C1.10526 3.20921 1.8125 2.28817 2.71149 1.5742C3.39283 1.04603 4.16921 0.649608 4.99978 0.405802C6.27673 0.0996055 7.58988 -0.0343881 8.90334 0.00748285H23.4811C24.7989 -0.0334759 26.1164 0.100497 27.3981 0.405802C28.2092 0.656827 28.9667 1.05288 29.6325 1.5742C30.533 2.27914 31.2446 3.19084 31.7054 4.22967C32.194 5.69723 32.4039 7.2411 32.3247 8.78379V23.1498C32.4136 24.6812 32.2174 26.2157 31.7458 27.6774Z" fill="url(#paint0_linear_715_19261)"/>
<path d="M18.6358 18.6642C18.2824 18.3435 17.8673 18.096 17.4151 17.9363C16.9629 17.7766 16.4828 17.7081 16.0032 17.7347C15.5287 17.7121 15.0542 17.7825 14.6074 17.9422C14.1607 18.1017 13.7505 18.3471 13.4007 18.6642C13.1223 18.9359 12.9525 19.2972 12.922 19.6822C12.8275 20.5749 12.8275 21.4749 12.922 22.3675C13.0117 23.4593 13.1912 24.9052 13.4305 26.3806C13.5245 27.0628 13.6644 27.7381 13.8493 28.4019C14.0154 28.8042 14.3093 29.1425 14.6869 29.366C15.0645 29.5895 15.5054 29.6861 15.9435 29.6413C16.3835 29.687 16.8267 29.591 17.2069 29.3676C17.5871 29.1442 17.8837 28.8054 18.0524 28.4019C18.2374 27.7381 18.3773 27.0628 18.4713 26.3806C18.6956 24.9052 18.8751 23.4298 18.9649 22.3675C19.0593 21.4749 19.0593 20.5749 18.9649 19.6822C18.976 19.3159 18.8599 18.9567 18.6358 18.6642ZM13.1015 13.6627C13.1015 14.2462 13.2769 14.8168 13.6056 15.302C13.9344 15.7873 14.4016 16.1655 14.9482 16.3888C15.4948 16.6122 16.0963 16.6706 16.6766 16.5567C17.2569 16.4429 17.79 16.1619 18.2084 15.7491C18.6267 15.3365 18.9116 14.8107 19.027 14.2383C19.1425 13.6659 19.0833 13.0726 18.8568 12.5335C18.6304 11.9942 18.247 11.5333 17.755 11.2091C17.2631 10.8849 16.6846 10.7119 16.093 10.7119C15.2996 10.7119 14.5387 11.0227 13.9777 11.5761C13.4167 12.1295 13.1015 12.88 13.1015 13.6627ZM16.0032 2.19875C13.0218 2.21227 10.1407 3.26382 7.86848 5.16797C5.59619 7.07212 4.07853 9.70655 3.58314 12.6067C3.08775 15.5068 3.64646 18.4863 5.16073 21.0198C6.67498 23.5533 9.04756 25.4779 11.86 26.4544C11.8883 26.4618 11.918 26.4623 11.9465 26.4558C11.9751 26.4493 12.0016 26.4359 12.0236 26.4171C12.0458 26.3981 12.0629 26.3742 12.0735 26.3473C12.0841 26.3203 12.0878 26.2913 12.0844 26.2626C12.0096 25.8347 11.9497 25.4069 11.8899 24.9938C11.884 24.9193 11.857 24.8481 11.8121 24.7881C11.7671 24.7281 11.706 24.6818 11.6356 24.6544C9.31878 23.6399 7.4264 21.8698 6.27656 19.6414C5.12673 17.413 4.78944 14.8621 5.32139 12.4174C5.85334 9.97272 7.2221 7.78305 9.19776 6.21635C11.1733 4.64965 13.6354 3.80137 16.1703 3.81404C18.7052 3.82672 21.1584 4.69956 23.1178 6.28593C25.0772 7.8723 26.4234 10.0756 26.9302 12.5255C27.437 14.9754 27.0736 17.5227 25.9009 19.7395C24.7282 21.9563 22.8177 23.7074 20.4906 24.6987C20.4202 24.7261 20.359 24.7724 20.3141 24.8323C20.2692 24.8924 20.2422 24.9636 20.2363 25.038C20.2363 25.4511 20.1166 25.879 20.0418 26.3069C20.0384 26.3355 20.0421 26.3646 20.0527 26.3916C20.0633 26.4185 20.0804 26.4424 20.1026 26.4613C20.1246 26.4802 20.1511 26.4935 20.1797 26.5C20.2081 26.5066 20.2379 26.5061 20.2662 26.4986C23.1216 25.5425 25.5371 23.6119 27.0775 21.0548C28.6178 18.4975 29.1815 15.4819 28.6674 12.5509C28.1532 9.61996 26.5948 6.96652 24.273 5.06854C21.9511 3.17055 19.0184 2.15285 16.0032 2.19875ZM15.7789 7.92327C17.1749 7.86917 18.5544 8.23733 19.7323 8.97847C20.9101 9.71962 21.8301 10.7983 22.3688 12.0698C22.9076 13.3412 23.0393 14.7449 22.7463 16.0923C22.4535 17.4398 21.7498 18.6667 20.7299 19.6085C20.6761 19.6632 20.6339 19.7278 20.6056 19.7988C20.5773 19.8697 20.5637 19.9454 20.5654 20.0216C20.5976 20.5129 20.5976 21.0057 20.5654 21.497C20.5664 21.5276 20.5754 21.5574 20.5916 21.5835C20.6077 21.6097 20.6305 21.6312 20.6575 21.6461C20.6847 21.661 20.7153 21.6686 20.7463 21.6683C20.7773 21.668 20.8077 21.6599 20.8346 21.6446C22.3337 20.6383 23.4663 19.1845 24.0663 17.4966C24.6663 15.8088 24.7021 13.9756 24.1684 12.2662C23.6346 10.5568 22.5595 9.06118 21.1007 7.99879C19.6419 6.93634 17.8764 6.36305 16.0631 6.36305C14.2498 6.36305 12.4842 6.93634 11.0255 7.99879C9.56673 9.06118 8.49159 10.5568 7.95783 12.2662C7.42409 13.9756 7.45985 15.8088 8.05985 17.4966C8.65984 19.1845 9.79253 20.6383 11.2916 21.6446C11.3173 21.6612 11.3471 21.6703 11.3778 21.671C11.4085 21.6718 11.4388 21.664 11.4652 21.6487C11.4916 21.6333 11.5133 21.6111 11.5275 21.5842C11.5417 21.5574 11.5482 21.5272 11.5459 21.497C11.5459 20.9954 11.5459 20.538 11.5459 20.0216C11.5536 19.9448 11.5428 19.8673 11.5141 19.7955C11.4855 19.7236 11.44 19.6596 11.3813 19.6085C10.3983 18.6902 9.71252 17.5058 9.41012 16.2041C9.10772 14.9024 9.20227 13.5415 9.68184 12.2926C10.1614 11.0438 11.0046 9.96264 12.1054 9.18518C13.2062 8.40782 14.5155 7.96876 15.8687 7.92327H15.7789Z" fill="white"/>
</g>
<g clip-path="url(#clip1_715_19261)">
<path fill-rule="evenodd" clip-rule="evenodd" d="M118.251 86.8658H116.332V72.2021H121.421C122.686 72.2021 123.781 72.6152 124.705 73.4411C125.63 74.2672 126.092 75.3082 126.092 76.5643C126.092 77.8205 125.63 78.8615 124.705 79.6875C123.781 80.5136 122.686 80.9266 121.421 80.9266H118.251V86.8658ZM118.251 79.1244H121.462C122.269 79.1244 122.916 78.8581 123.402 78.3257C123.889 77.7931 124.132 77.206 124.132 76.5643C124.132 75.9227 123.889 75.3356 123.402 74.8031C122.916 74.2706 122.269 74.0044 121.462 74.0044H118.251V79.1244ZM127.684 78.039C128.671 77.0149 129.929 76.5029 131.458 76.5029C132.988 76.5029 134.246 77.0115 135.233 78.0287C136.22 79.0459 136.714 80.319 136.714 81.8481C136.714 83.3773 136.22 84.6505 135.233 85.6677C134.246 86.6849 132.988 87.1934 131.458 87.1934C129.929 87.1934 128.671 86.6849 127.684 85.6677C126.697 84.6505 126.203 83.3773 126.203 81.8481C126.203 80.319 126.697 79.0493 127.684 78.039ZM129.102 84.4901C129.769 85.1454 130.555 85.4732 131.458 85.4732C132.362 85.4732 133.144 85.142 133.805 84.4798C134.465 83.8177 134.795 82.9405 134.795 81.8481C134.795 80.7559 134.465 79.8787 133.805 79.2165C133.144 78.5543 132.362 78.2232 131.458 78.2232C130.555 78.2232 129.772 78.5543 129.112 79.2165C128.452 79.8787 128.122 80.7559 128.122 81.8481C128.122 82.9405 128.448 83.8211 129.102 84.4901ZM142.497 87.1934C141.176 87.1934 140.036 86.6814 139.077 85.6574C138.118 84.6334 137.637 83.3636 137.637 81.8481C137.637 80.3326 138.118 79.0629 139.077 78.039C140.036 77.0149 141.176 76.5029 142.497 76.5029C143.275 76.5029 143.974 76.6668 144.593 76.9944C145.212 77.3221 145.674 77.7317 145.98 78.2232H146.063L145.98 76.8306V72.2021H147.899V86.8658H146.063V85.4732H145.98C145.674 85.9646 145.212 86.3742 144.593 86.7019C143.974 87.0296 143.275 87.1934 142.497 87.1934ZM142.81 85.4732C143.713 85.4732 144.482 85.1454 145.114 84.4901C145.747 83.8347 146.063 82.9541 146.063 81.8481C146.063 80.7423 145.747 79.8616 145.114 79.2063C144.482 78.5509 143.713 78.2232 142.81 78.2232C141.92 78.2232 141.155 78.5543 140.516 79.2165C139.876 79.8787 139.556 80.7559 139.556 81.8481C139.556 82.9405 139.876 83.8177 140.516 84.4798C141.155 85.142 141.92 85.4732 142.81 85.4732ZM154.557 87.1934C153.029 87.1934 151.77 86.6849 150.783 85.6677C149.796 84.6505 149.302 83.3773 149.302 81.8481C149.302 80.319 149.796 79.0459 150.783 78.0287C151.77 77.0115 153.029 76.5029 154.557 76.5029C155.698 76.5029 156.643 76.7759 157.394 77.3221C158.145 77.8683 158.694 78.5577 159.041 79.3906L157.29 80.1074C156.761 78.8512 155.809 78.2232 154.433 78.2232C153.585 78.2232 152.837 78.5646 152.191 79.2472C151.544 79.9299 151.221 80.7968 151.221 81.8481C151.221 82.8994 151.544 83.7665 152.191 84.4491C152.837 85.1318 153.585 85.4732 154.433 85.4732C155.865 85.4732 156.852 84.845 157.394 83.589L159.104 84.3057C158.756 85.125 158.197 85.8111 157.425 86.3639C156.653 86.9169 155.698 87.1934 154.557 87.1934ZM163.656 87.1934C162.572 87.1934 161.665 86.8862 160.935 86.2719C160.205 85.6574 159.84 84.845 159.84 83.8347C159.84 82.7424 160.271 81.8857 161.133 81.2645C161.995 80.6433 163.059 80.3326 164.324 80.3326C165.45 80.3326 166.374 80.5374 167.097 80.9471V80.6603C167.097 79.9231 166.841 79.3326 166.326 78.8888C165.811 78.4451 165.179 78.2232 164.429 78.2232C163.872 78.2232 163.368 78.3529 162.916 78.6124C162.465 78.8718 162.155 79.2267 161.988 79.6773L160.236 78.94C160.472 78.3392 160.939 77.783 161.634 77.271C162.329 76.7589 163.246 76.5029 164.386 76.5029C165.693 76.5029 166.778 76.8784 167.64 77.6293C168.502 78.3802 168.933 79.4383 168.933 80.8037V86.8658H167.097V85.4732H167.014C166.249 86.62 165.13 87.1934 163.656 87.1934ZM163.969 85.4732C164.762 85.4732 165.481 85.1829 166.128 84.6027C166.774 84.0225 167.097 83.3364 167.097 82.5445C166.556 82.1076 165.742 81.8891 164.657 81.8891C163.726 81.8891 163.024 82.0871 162.551 82.483C162.079 82.879 161.842 83.3432 161.842 83.8756C161.842 84.3672 162.058 84.7564 162.489 85.0431C162.92 85.3298 163.413 85.4732 163.969 85.4732ZM174.549 87.1934C173.409 87.1934 172.467 86.9203 171.723 86.3742C170.979 85.8281 170.433 85.1454 170.086 84.3263L171.796 83.6299C172.339 84.886 173.263 85.5141 174.57 85.5141C175.168 85.5141 175.658 85.3844 176.04 85.125C176.423 84.8656 176.614 84.5242 176.614 84.101C176.614 83.4456 176.148 83.0019 175.216 82.7698L173.151 82.2782C172.498 82.1144 171.879 81.8038 171.295 81.3464C170.712 80.889 170.42 80.2713 170.42 79.493C170.42 78.6055 170.819 77.8853 171.619 77.3323C172.418 76.7794 173.367 76.5029 174.466 76.5029C175.369 76.5029 176.176 76.7043 176.885 77.1071C177.594 77.5099 178.102 78.0867 178.408 78.8377L176.739 79.5135C176.363 78.626 175.585 78.1823 174.403 78.1823C173.833 78.1823 173.353 78.2983 172.964 78.5304C172.574 78.7625 172.38 79.0766 172.38 79.4725C172.38 80.0459 172.832 80.4351 173.736 80.6399L175.759 81.1109C176.718 81.3294 177.427 81.7048 177.886 82.2373C178.345 82.7698 178.574 83.3705 178.574 84.0395C178.574 84.9406 178.199 85.6915 177.448 86.2923C176.698 86.8931 175.731 87.1934 174.549 87.1934ZM184.316 87.0296C183.245 87.0296 182.428 86.7497 181.865 86.19C181.301 85.6301 181.02 84.8383 181.02 83.8143V78.5509H179.227V76.8306H181.02V73.7586H182.939V76.8306H185.442V78.5509H182.939V83.6709C182.939 84.7631 183.398 85.3092 184.316 85.3092C184.663 85.3092 184.955 85.2547 185.191 85.1454L185.859 86.7633C185.442 86.9409 184.927 87.0296 184.316 87.0296ZM191.036 87.1934C189.896 87.1934 188.955 86.9203 188.211 86.3742C187.467 85.8281 186.921 85.1454 186.574 84.3263L188.284 83.6299C188.826 84.886 189.75 85.5141 191.058 85.5141C191.656 85.5141 192.145 85.3844 192.528 85.125C192.911 84.8656 193.101 84.5242 193.101 84.101C193.101 83.4456 192.636 83.0019 191.704 82.7698L189.639 82.2782C188.986 82.1144 188.367 81.8038 187.783 81.3464C187.199 80.889 186.907 80.2713 186.907 79.493C186.907 78.6055 187.307 77.8853 188.107 77.3323C188.906 76.7794 189.855 76.5029 190.954 76.5029C191.857 76.5029 192.664 76.7043 193.373 77.1071C194.082 77.5099 194.59 78.0867 194.895 78.8377L193.227 79.5135C192.851 78.626 192.073 78.1823 190.89 78.1823C190.32 78.1823 189.841 78.2983 189.452 78.5304C189.062 78.7625 188.868 79.0766 188.868 79.4725C188.868 80.0459 189.319 80.4351 190.224 80.6399L192.246 81.1109C193.206 81.3294 193.915 81.7048 194.374 82.2373C194.832 82.7698 195.062 83.3705 195.062 84.0395C195.062 84.9406 194.686 85.6915 193.936 86.2923C193.185 86.8931 192.219 87.1934 191.036 87.1934Z" fill="white"/>
<path d="M43.4656 78.7869C43.4656 74.147 47.425 70.387 52.15 70.387C54.757 70.387 56.6145 71.395 58.0158 72.707L56.3538 74.3229C55.3599 73.3949 54.0075 72.675 52.15 72.675C48.7121 72.675 46.0237 75.3949 46.0237 78.7709C46.0237 82.1469 48.7121 84.8669 52.15 84.8669C54.3823 84.8669 55.6532 83.9869 56.4679 83.1869C57.1359 82.5309 57.5759 81.587 57.7387 80.3069H52.15V78.0189H60.0198C60.1013 78.4349 60.1502 78.9149 60.1502 79.4589C60.1502 81.1869 59.6777 83.3149 58.1298 84.8189C56.6145 86.3549 54.6919 87.1708 52.15 87.1708C47.425 87.1708 43.4656 83.4109 43.4656 78.7869ZM66.4232 76.467C69.4701 76.467 71.9467 78.7389 71.9467 81.8749C71.9467 84.9949 69.4701 87.2829 66.4232 87.2829C63.3763 87.2829 60.8997 84.9949 60.8997 81.8749C60.8997 78.7389 63.3763 76.467 66.4232 76.467ZM66.4232 85.1388C68.0852 85.1388 69.5353 83.7949 69.5353 81.8589C69.5353 79.9069 68.0852 78.579 66.4232 78.579C64.745 78.579 63.3112 79.9069 63.3112 81.8589C63.3112 83.7949 64.7613 85.1388 66.4232 85.1388ZM78.4805 76.467C81.5273 76.467 84.004 78.7389 84.004 81.8749C84.004 84.9949 81.5273 87.2829 78.4805 87.2829C75.4335 87.2829 72.957 84.9949 72.957 81.8749C72.957 78.7389 75.4335 76.467 78.4805 76.467ZM78.4805 85.1388C80.1424 85.1388 81.5925 83.7949 81.5925 81.8589C81.5925 79.9069 80.1587 78.579 78.4805 78.579C76.8022 78.579 75.3684 79.9069 75.3684 81.8589C75.3684 83.7949 76.8185 85.1388 78.4805 85.1388ZM93.275 76.643H95.5887V86.3549C95.5887 90.3549 93.1935 91.9868 90.3584 91.9868C87.6863 91.9868 86.0732 90.2269 85.4704 88.7869L87.5722 87.9229C87.947 88.8029 88.8595 89.8429 90.3421 89.8429C92.1507 89.8429 93.275 88.7389 93.275 86.6749V85.8909H93.1935C92.6558 86.5469 91.613 87.1229 90.2932 87.1229C87.5397 87.1229 85.0142 84.7549 85.0142 81.7309C85.0142 78.6749 87.5397 76.307 90.2932 76.307C91.613 76.307 92.6558 76.8829 93.1935 77.523H93.275V76.643ZM90.505 84.9949C92.1507 84.9949 93.4542 83.6349 93.4379 81.7309C93.4379 79.8269 92.1507 78.4349 90.505 78.4349C88.8431 78.4349 87.4419 79.8269 87.4419 81.7309C87.4419 83.6189 88.8431 84.9949 90.505 84.9949ZM97.2344 86.9148V71.027H99.6455V86.9148H97.2344ZM106.278 85.1388C107.515 85.1388 108.362 84.5468 108.998 83.6509L110.872 84.8829C110.253 85.7629 108.803 87.2829 106.278 87.2829C103.148 87.2829 100.819 84.8989 100.819 81.8749C100.819 78.6589 103.182 76.467 106.017 76.467C108.868 76.467 110.269 78.6909 110.725 79.9069L110.97 80.5149L103.605 83.5069C104.176 84.5789 105.039 85.1388 106.278 85.1388ZM106.098 78.5469C104.86 78.5469 103.148 79.6189 103.214 81.6989L108.135 79.6989C107.874 79.011 107.059 78.5469 106.098 78.5469Z" fill="white"/>
<path d="M14.6196 74V78.8492V80.7874V85.6364H18.6931V80.7874V78.8492V74H14.6196Z" fill="#FF7602"/>
<path d="M2.40343 80.9124C3.52828 80.9124 4.44015 80.0169 4.44015 78.9124C4.44015 77.8078 3.52828 76.9124 2.40343 76.9124C1.27857 76.9124 0.366699 77.8078 0.366699 78.9124C0.366699 80.0169 1.27857 80.9124 2.40343 80.9124Z" fill="#0066D9"/>
<path d="M2.40343 83.0945C3.52828 83.0945 4.44015 82.1991 4.44015 81.0945C4.44015 79.9899 3.52828 79.0945 2.40343 79.0945C1.27857 79.0945 0.366699 79.9899 0.366699 81.0945C0.366699 82.1991 1.27857 83.0945 2.40343 83.0945Z" fill="#0066D9"/>
<path d="M4.44015 78.9128H0.366699V81.0947H4.44015V78.9128Z" fill="#0066D9"/>
<path d="M30.9168 83.0945C32.0417 83.0945 32.9535 82.1991 32.9535 81.0945C32.9535 79.9899 32.0417 79.0945 30.9168 79.0945C29.792 79.0945 28.8801 79.9899 28.8801 81.0945C28.8801 82.1991 29.792 83.0945 30.9168 83.0945Z" fill="#4285F4"/>
<path d="M30.9168 80.9124C32.0417 80.9124 32.9535 80.0169 32.9535 78.9124C32.9535 77.8078 32.0417 76.9124 30.9168 76.9124C29.792 76.9124 28.8801 77.8078 28.8801 78.9124C28.8801 80.0169 29.792 80.9124 30.9168 80.9124Z" fill="#4285F4"/>
<path d="M28.8801 81.0947H32.9535V78.9128H28.8801V81.0947Z" fill="#4285F4"/>
<path d="M9.43857 87.4583C10.5634 87.4583 11.4753 86.5628 11.4753 85.4583C11.4753 84.3537 10.5634 83.4583 9.43857 83.4583C8.31372 83.4583 7.40186 84.3537 7.40186 85.4583C7.40186 86.5628 8.31372 87.4583 9.43857 87.4583Z" fill="#EA4335"/>
<path d="M9.43857 89.6402C10.5634 89.6402 11.4753 88.7448 11.4753 87.6402C11.4753 86.5357 10.5634 85.6401 9.43857 85.6401C8.31372 85.6401 7.40186 86.5357 7.40186 87.6402C7.40186 88.7448 8.31372 89.6402 9.43857 89.6402Z" fill="#EA4335"/>
<path d="M11.4753 85.4585H7.40186V87.6403H11.4753V85.4585Z" fill="#EA4335"/>
<path d="M9.43857 74.3672C10.5634 74.3672 11.4753 73.4717 11.4753 72.3672C11.4753 71.2626 10.5634 70.3672 9.43857 70.3672C8.31372 70.3672 7.40186 71.2626 7.40186 72.3672C7.40186 73.4717 8.31372 74.3672 9.43857 74.3672Z" fill="#EA4335"/>
<path d="M9.43857 81.4578C10.5634 81.4578 11.4753 80.5624 11.4753 79.4578C11.4753 78.3532 10.5634 77.4578 9.43857 77.4578C8.31372 77.4578 7.40186 78.3532 7.40186 79.4578C7.40186 80.5624 8.31372 81.4578 9.43857 81.4578Z" fill="#EA4335"/>
<path d="M11.4753 72.3669H7.40186V79.5034H11.4753V72.3669Z" fill="#EA4335"/>
<path d="M23.8809 76.5491C25.0058 76.5491 25.9176 75.6537 25.9176 74.5491C25.9176 73.4445 25.0058 72.5491 23.8809 72.5491C22.7561 72.5491 21.8442 73.4445 21.8442 74.5491C21.8442 75.6537 22.7561 76.5491 23.8809 76.5491Z" fill="#34A853"/>
<path d="M23.8809 74.3672C25.0058 74.3672 25.9176 73.4717 25.9176 72.3672C25.9176 71.2626 25.0058 70.3672 23.8809 70.3672C22.7561 70.3672 21.8442 71.2626 21.8442 72.3672C21.8442 73.4717 22.7561 74.3672 23.8809 74.3672Z" fill="#34A853"/>
<path d="M21.844 74.5488H25.9175V72.3669H21.844V74.5488Z" fill="#34A853"/>
<path d="M16.6598 70.1853C17.7847 70.1853 18.6965 69.2899 18.6965 68.1853C18.6965 67.0807 17.7847 66.1853 16.6598 66.1853C15.5349 66.1853 14.623 67.0807 14.623 68.1853C14.623 69.2899 15.5349 70.1853 16.6598 70.1853Z" fill="#FF7602"/>
<path d="M16.6598 68.0034C17.7847 68.0034 18.6965 67.108 18.6965 66.0034C18.6965 64.8989 17.7847 64.0034 16.6598 64.0034C15.5349 64.0034 14.623 64.8989 14.623 66.0034C14.623 67.108 15.5349 68.0034 16.6598 68.0034Z" fill="#FF7602"/>
<path d="M14.623 68.1853H18.6965V66.0034H14.623V68.1853Z" fill="#FF7602"/>
<path d="M16.6598 96.0034C17.7847 96.0034 18.6965 95.108 18.6965 94.0034C18.6965 92.8988 17.7847 92.0034 16.6598 92.0034C15.5349 92.0034 14.623 92.8988 14.623 94.0034C14.623 95.108 15.5349 96.0034 16.6598 96.0034Z" fill="#FF7602"/>
<path d="M16.6598 93.822C17.7847 93.822 18.6965 92.9266 18.6965 91.822C18.6965 90.7174 17.7847 89.822 16.6598 89.822C15.5349 89.822 14.623 90.7174 14.623 91.822C14.623 92.9266 15.5349 93.822 16.6598 93.822Z" fill="#FF7602"/>
<path d="M14.623 94.0036H18.6965V91.8218H14.623V94.0036Z" fill="#FF7602"/>
<path d="M23.8809 89.6402C25.0058 89.6402 25.9176 88.7448 25.9176 87.6402C25.9176 86.5357 25.0058 85.6401 23.8809 85.6401C22.7561 85.6401 21.8442 86.5357 21.8442 87.6402C21.8442 88.7448 22.7561 89.6402 23.8809 89.6402Z" fill="#34A853"/>
<path d="M23.8809 82.5491C25.0058 82.5491 25.9176 81.6537 25.9176 80.5491C25.9176 79.4445 25.0058 78.5491 23.8809 78.5491C22.7561 78.5491 21.8442 79.4445 21.8442 80.5491C21.8442 81.6537 22.7561 82.5491 23.8809 82.5491Z" fill="#34A853"/>
<path d="M21.844 87.6401H25.9175V80.5491H21.844V87.6401Z" fill="#34A853"/>
<path d="M16.6598 76.1854C17.7847 76.1854 18.6965 75.2899 18.6965 74.1854C18.6965 73.0808 17.7847 72.1853 16.6598 72.1853C15.5349 72.1853 14.623 73.0808 14.623 74.1854C14.623 75.2899 15.5349 76.1854 16.6598 76.1854Z" fill="#FF7602"/>
<path d="M16.6598 87.822C17.7847 87.822 18.6965 86.9266 18.6965 85.822C18.6965 84.7175 17.7847 83.822 16.6598 83.822C15.5349 83.822 14.623 84.7175 14.623 85.822C14.623 86.9266 15.5349 87.822 16.6598 87.822Z" fill="#FF7602"/>
</g>
<g clip-path="url(#clip2_715_19261)">
<path d="M47.2426 143.4C45.0939 142.884 44.4991 142.617 44.4991 141.757C44.4991 140.897 44.998 140.534 46.4176 140.534C47.002 140.537 47.579 140.663 48.1111 140.904C48.6433 141.144 49.1187 141.493 49.5064 141.929L51.4249 140.018C50.8056 139.341 50.0496 138.802 49.2066 138.436C48.3634 138.071 47.4522 137.887 46.5328 137.897C43.8469 137.897 41.6597 139.406 41.6597 141.871C41.6597 144.337 43.4056 145.35 45.9188 145.942C48.4321 146.534 48.9692 146.916 48.9692 147.853C48.9692 148.789 48.2019 149.324 46.5903 149.324C45.9279 149.339 45.2707 149.205 44.6667 148.934C44.0626 148.663 43.5269 148.261 43.0986 147.757L41.1802 149.516C41.8129 150.315 42.6295 150.952 43.5613 151.371C44.4929 151.79 45.512 151.979 46.5328 151.923C50.2547 151.923 51.8854 150.184 51.8854 147.585C51.8086 144.642 49.4105 143.897 47.2426 143.4ZM59.8088 137.897C56.0868 137.897 53.8806 140.763 53.8806 144.91C53.8806 149.057 56.0868 151.923 59.8088 151.923C63.5306 151.923 65.7178 149.057 65.7178 144.91C65.7178 140.763 63.5498 137.897 59.8088 137.897ZM59.8088 149.229C57.6217 149.229 56.7008 147.318 56.7008 144.91C56.7008 142.502 57.6217 140.591 59.8088 140.591C61.9958 140.591 62.9359 142.502 62.9359 144.91C62.9359 147.318 62.0151 149.229 59.8088 149.229ZM76.7683 145.751C76.7683 147.929 75.6939 149.267 73.9673 149.267C72.2406 149.267 71.1662 147.891 71.1662 145.713V138.069H68.442V145.713C68.442 149.668 70.6675 151.885 73.9673 151.885C77.2671 151.885 79.4926 149.611 79.4926 145.674V138.03H76.7683V145.751ZM91.2721 143.859V146.84C91.0995 146.477 90.6583 145.808 90.3321 145.292L85.4782 138.107H82.9842V151.713H85.6894V145.732V142.75C85.862 143.094 86.3033 143.782 86.6293 144.298L91.6559 151.713H94.0923V138.107H91.2721V143.859ZM101.747 138.107H97.4881V151.713H101.555C102.478 151.786 103.405 151.66 104.275 151.346C105.144 151.032 105.937 150.536 106.598 149.892C107.26 149.247 107.775 148.469 108.11 147.61C108.444 146.751 108.591 145.83 108.539 144.91C108.539 139.941 105.661 138.107 101.747 138.107ZM101.555 149.076H100.251V140.744H101.69C104.587 140.744 105.776 142.139 105.776 144.91C105.83 145.474 105.758 146.043 105.564 146.575C105.371 147.108 105.062 147.591 104.658 147.99C104.253 148.389 103.765 148.693 103.229 148.881C102.692 149.068 102.121 149.135 101.555 149.076ZM116.98 140.591C117.5 140.564 118.017 140.691 118.464 140.956C118.911 141.221 119.27 141.613 119.494 142.082L122.025 140.916C121.597 139.967 120.888 139.17 119.993 138.631C119.1 138.091 118.061 137.835 117.018 137.897C113.469 137.897 110.956 140.763 110.956 144.91C110.956 149.057 113.354 151.923 116.923 151.923C117.981 151.983 119.032 151.721 119.936 151.172C120.841 150.622 121.557 149.811 121.988 148.847L119.685 147.49C119.459 148.011 119.084 148.453 118.605 148.763C118.127 149.072 117.569 149.234 116.999 149.229C114.966 149.229 113.776 147.318 113.776 144.91C113.776 142.502 114.946 140.591 116.98 140.591ZM127.109 138.107H124.386V151.713H132.597V149.038H127.109V138.107ZM139.791 137.897C136.069 137.897 133.863 140.763 133.863 144.91C133.863 149.057 136.069 151.923 139.791 151.923C143.513 151.923 145.719 149.057 145.719 144.91C145.719 140.763 143.513 137.897 139.791 137.897ZM139.791 149.229C137.584 149.229 136.664 147.318 136.664 144.91C136.664 142.502 137.584 140.591 139.791 140.591C141.997 140.591 142.898 142.502 142.898 144.91C142.898 147.318 141.997 149.229 139.791 149.229ZM156.731 145.751C156.731 147.929 155.676 149.267 153.931 149.267C152.185 149.267 151.149 147.891 151.149 145.713V138.069H148.405V145.713C148.405 149.668 150.631 151.885 153.931 151.885C157.23 151.885 159.474 149.611 159.474 145.674V138.03H156.731V145.751ZM167.149 138.107H162.89V151.713H166.957C167.879 151.786 168.806 151.66 169.676 151.346C170.547 151.032 171.338 150.536 172 149.892C172.662 149.247 173.177 148.469 173.511 147.61C173.846 146.751 173.992 145.83 173.94 144.91C173.94 139.941 171.062 138.107 167.149 138.107ZM166.957 149.076H165.614V140.744H167.052C169.949 140.744 171.139 142.139 171.139 144.91C171.193 145.47 171.121 146.035 170.93 146.565C170.738 147.095 170.432 147.576 170.033 147.974C169.633 148.372 169.15 148.677 168.618 148.867C168.086 149.058 167.519 149.129 166.957 149.076Z" fill="white"/>
<path d="M33.3053 144C33.3053 152.889 25.8809 160 16.8933 160C7.90581 160 0.351074 152.889 0.351074 144C0.351074 135.111 7.77555 128 16.763 128C25.7506 128 33.3053 135.111 33.3053 144Z" fill="url(#paint1_linear_715_19261)"/>
<path d="M4.35773 145.193C4.36455 145.136 4.40641 145.095 4.45916 145.095C4.50999 145.095 4.55212 145.136 4.56001 145.193L4.77913 146.584L4.56001 147.951C4.55187 148.009 4.51025 148.048 4.45916 148.048C4.40639 148.048 4.36455 148.008 4.35773 147.951L4.17285 146.584L4.35773 145.193Z" fill="white"/>
<path d="M5.39228 144.234C5.44557 144.234 5.48879 144.276 5.49751 144.335L5.77995 146.584L5.49723 148.783C5.48854 148.843 5.44529 148.884 5.39228 148.884C5.33847 148.884 5.29414 148.842 5.28707 148.783L5.03857 146.584L5.28707 144.335C5.2944 144.277 5.33872 144.234 5.39228 144.234Z" fill="white"/>
<path d="M9.21697 142.449C9.22176 142.344 9.30615 142.261 9.408 142.261C9.50946 142.261 9.59345 142.344 9.59944 142.449L9.82323 146.586L9.59944 149.26V149.259C9.59345 149.363 9.50946 149.446 9.408 149.446C9.30615 149.446 9.22206 149.364 9.21697 149.259L9.01904 146.586L9.21697 142.449Z" fill="white"/>
<path d="M7.23563 143.844C7.24191 143.761 7.3058 143.699 7.38409 143.699C7.46157 143.699 7.52545 143.761 7.53227 143.843L7.78565 146.585L7.53227 149.236C7.52545 149.319 7.46157 149.381 7.38409 149.381C7.30577 149.381 7.24161 149.319 7.23563 149.236L7.0127 146.585L7.23563 143.844Z" fill="white"/>
<path d="M11.6994 149.216C11.6942 149.345 11.5915 149.446 11.465 149.446C11.3378 149.446 11.2347 149.345 11.2307 149.216L11.0586 146.587L11.2307 141.08C11.2348 140.95 11.3378 140.849 11.4653 140.849C11.5918 140.849 11.6945 140.95 11.6997 141.079L11.8935 146.587L11.6994 149.216Z" fill="white"/>
<path d="M15.9968 149.142C15.9936 149.316 15.85 149.458 15.676 149.458C15.502 149.458 15.3579 149.316 15.3552 149.143C15.3552 149.143 15.2341 146.591 15.2341 146.586L15.3552 140.228C15.3579 140.053 15.5017 139.911 15.6759 139.911C15.85 139.911 15.9938 140.053 15.9968 140.228L16.1322 146.589L15.9968 149.142Z" fill="white"/>
<path d="M13.832 149.174C13.8279 149.328 13.7057 149.448 13.5543 149.448C13.4018 149.448 13.2797 149.328 13.2764 149.176L13.1296 146.588L13.2762 141.04C13.2794 140.887 13.4016 140.767 13.554 140.767C13.7055 140.767 13.8276 140.887 13.8317 141.04L13.9966 146.588L13.832 149.176V149.174Z" fill="white"/>
<path d="M8.56174 149.259C8.55495 149.352 8.48205 149.424 8.39208 149.424C8.3007 149.424 8.22812 149.352 8.22214 149.258L8.01196 146.584L8.22214 144.042C8.22784 143.947 8.3007 143.876 8.39208 143.876C8.48235 143.876 8.55515 143.947 8.56174 144.041L8.80041 146.584L8.56174 149.259Z" fill="white"/>
<path d="M6.51087 149.155C6.50325 149.226 6.44997 149.277 6.3842 149.277C6.31729 149.277 6.26401 149.226 6.25747 149.154L6.02148 146.584L6.25747 143.916C6.26427 143.845 6.31755 143.793 6.38417 143.793C6.44995 143.793 6.50323 143.845 6.51112 143.916L6.77893 146.584L6.51087 149.155Z" fill="white"/>
<path d="M14.3115 141.243C14.3147 141.077 14.4467 140.948 14.6111 140.948C14.7753 140.948 14.9064 141.077 14.9102 141.243L15.0603 146.588L14.9102 149.16V149.158C14.9064 149.324 14.7753 149.453 14.6111 149.453C14.4464 149.453 14.3148 149.324 14.3115 149.16L14.1777 146.588L14.3115 141.243Z" fill="white"/>
<path d="M10.6455 149.242C10.6401 149.359 10.5463 149.451 10.4326 149.451C10.3179 149.451 10.2244 149.359 10.2198 149.243L10.0347 146.586L10.2195 141.503C10.2244 141.386 10.3179 141.294 10.4326 141.294C10.5463 141.294 10.6398 141.386 10.6455 141.503L10.8543 146.586L10.6455 149.242Z" fill="white"/>
<path d="M12.7614 149.2V149.2C12.7563 149.341 12.6444 149.451 12.5055 149.451C12.366 149.451 12.2535 149.34 12.2497 149.2L12.0901 146.587L12.2494 140.894C12.2532 140.752 12.3657 140.642 12.5055 140.642C12.6444 140.642 12.757 140.753 12.7614 140.894L12.9407 146.587L12.7614 149.199V149.2C12.7614 149.2 12.7614 149.2 12.7614 149.199V149.2Z" fill="white"/>
<path d="M25.1119 143.545C25.4817 143.391 25.8875 143.306 26.313 143.306C28.0278 143.306 29.4178 144.685 29.4179 146.386C29.4179 148.087 28.0275 149.465 26.3128 149.465C26.2573 149.465 17.7134 149.461 17.7055 149.46C17.52 149.442 17.3726 149.285 17.3701 149.096V139.322C17.3723 139.143 17.4347 139.05 17.6691 138.96C18.272 138.729 18.9549 138.592 19.6554 138.592C22.518 138.592 24.8648 140.769 25.1119 143.545Z" fill="white"/>
<path d="M16.3935 139.652C16.3962 139.465 16.5496 139.313 16.7363 139.313C16.9225 139.313 17.0758 139.465 17.0785 139.651L17.2311 146.589L17.0785 149.107V149.104C17.0758 149.291 16.9225 149.443 16.7363 149.443C16.5496 149.443 16.3962 149.291 16.3938 149.107L16.2532 146.589L16.3935 139.652Z" fill="white"/>
</g>
<g clip-path="url(#clip3_715_19261)">
<path d="M125.506 207.509C125.226 207.511 124.948 207.457 124.688 207.352C124.428 207.246 124.192 207.09 123.994 206.893C123.795 206.697 123.639 206.463 123.532 206.205C123.425 205.948 123.371 205.672 123.373 205.393C123.373 204.829 123.6 204.287 124.003 203.888C124.404 203.489 124.951 203.264 125.52 203.264C125.801 203.262 126.079 203.316 126.339 203.421C126.598 203.527 126.835 203.683 127.033 203.88C127.232 204.076 127.388 204.31 127.495 204.568C127.602 204.825 127.655 205.101 127.653 205.379C127.653 205.944 127.427 206.486 127.024 206.885C126.622 207.284 126.076 207.509 125.506 207.509ZM125.506 203.474C125.122 203.472 124.747 203.582 124.426 203.792C124.105 204.002 123.855 204.301 123.707 204.653C123.559 205.004 123.519 205.391 123.594 205.764C123.668 206.138 123.852 206.481 124.124 206.75C124.396 207.02 124.742 207.203 125.118 207.276C125.494 207.35 125.885 207.311 126.239 207.164C126.593 207.017 126.896 206.769 127.107 206.451C127.318 206.133 127.43 205.76 127.427 205.379C127.429 205.13 127.381 204.883 127.286 204.652C127.191 204.42 127.051 204.21 126.874 204.033C126.696 203.856 126.486 203.716 126.253 203.62C126.021 203.524 125.772 203.474 125.52 203.474H125.506ZM125.986 205.604L126.579 206.444H126.071L125.534 205.674H125.069V206.444H124.631V204.217H125.633C126.156 204.217 126.51 204.483 126.51 204.917C126.513 205.071 126.464 205.222 126.372 205.346C126.28 205.47 126.15 205.561 126.001 205.604H125.986ZM125.619 204.595H125.069V205.295H125.619C125.901 205.295 126.071 205.169 126.071 204.945C126.071 204.721 125.916 204.595 125.633 204.595H125.619Z" fill="white"/>
<path d="M107.158 203.307V202.886C107.158 201.654 107.624 201.107 108.684 201.107C109.272 201.114 109.856 201.223 110.407 201.429C110.438 201.443 110.472 201.451 110.506 201.451C110.54 201.451 110.574 201.443 110.605 201.429C110.633 201.408 110.655 201.38 110.669 201.348C110.684 201.317 110.691 201.282 110.69 201.247V198.684C110.692 198.635 110.679 198.586 110.65 198.546C110.622 198.505 110.581 198.475 110.534 198.46C109.709 198.245 108.858 198.15 108.006 198.18C105.181 198.18 103.769 199.748 103.769 202.704V203.349H102.356C102.3 203.349 102.246 203.371 102.206 203.41C102.166 203.45 102.144 203.503 102.144 203.559V206.164C102.144 206.221 102.166 206.276 102.205 206.318C102.245 206.36 102.299 206.385 102.356 206.388H103.769V216.726C103.769 216.782 103.791 216.836 103.831 216.875C103.87 216.914 103.924 216.937 103.98 216.937H106.961C107.018 216.937 107.074 216.915 107.115 216.876C107.157 216.837 107.183 216.783 107.186 216.726V206.318H110.011L114.362 216.642C113.868 217.735 113.373 217.945 112.709 217.945C112.124 217.929 111.551 217.771 111.043 217.483C111.014 217.469 110.983 217.462 110.951 217.462C110.919 217.462 110.888 217.469 110.859 217.483C110.831 217.491 110.805 217.505 110.782 217.525C110.76 217.544 110.743 217.568 110.732 217.595L109.786 219.822C109.765 219.873 109.763 219.929 109.781 219.981C109.8 220.032 109.836 220.076 109.885 220.102C110.872 220.664 111.995 220.95 113.133 220.929C115.365 220.929 116.608 219.892 117.71 217.105L122.978 203.601C122.995 203.568 123.004 203.532 123.004 203.496C123.004 203.459 122.995 203.423 122.978 203.391C122.956 203.363 122.929 203.342 122.897 203.327C122.865 203.312 122.83 203.305 122.795 203.307H119.546C119.501 203.309 119.458 203.324 119.421 203.348C119.383 203.373 119.353 203.407 119.334 203.447L116.1 212.622L112.61 203.447C112.593 203.405 112.564 203.369 112.526 203.344C112.489 203.319 112.444 203.306 112.399 203.307H107.158Z" fill="white"/>
<path d="M100.407 203.292H97.37C97.2452 203.292 97.144 203.393 97.144 203.517V216.656C97.144 216.78 97.2452 216.88 97.37 216.88H100.407C100.532 216.88 100.632 216.78 100.632 216.656V203.517C100.632 203.393 100.532 203.292 100.407 203.292Z" fill="white"/>
<path d="M98.9022 197.935C98.4824 197.932 98.0706 198.053 97.7204 198.282C97.3699 198.512 97.0961 198.839 96.9334 199.223C96.7709 199.607 96.7269 200.031 96.8072 200.439C96.8874 200.848 97.0883 201.224 97.3843 201.52C97.6803 201.815 98.0586 202.017 98.4694 202.099C98.8813 202.181 99.3081 202.141 99.697 201.982C100.085 201.823 100.417 201.553 100.65 201.207C100.885 200.861 101.009 200.454 101.009 200.038C101.01 199.762 100.958 199.489 100.853 199.234C100.747 198.979 100.593 198.747 100.397 198.551C100.201 198.356 99.9683 198.201 99.712 198.095C99.4547 197.989 99.1805 197.935 98.9022 197.935Z" fill="white"/>
<path d="M95.5057 203.292H92.1582V199.902C92.1583 199.845 92.1364 199.79 92.097 199.749C92.0576 199.707 92.0037 199.682 91.9462 199.678H88.9095C88.8496 199.678 88.792 199.702 88.7496 199.744C88.7072 199.786 88.6835 199.843 88.6835 199.902V203.292H87.1863C87.1585 203.292 87.1308 203.298 87.1052 203.308C87.0795 203.319 87.0561 203.334 87.0365 203.354C87.0167 203.373 87.0012 203.397 86.9905 203.422C86.9798 203.448 86.9744 203.475 86.9744 203.502V206.094C86.9743 206.151 86.9961 206.206 87.0355 206.248C87.0749 206.289 87.1288 206.314 87.1863 206.318H88.5987V213.014C88.5987 215.718 90.0112 217.09 92.6384 217.09C93.627 217.118 94.6042 216.876 95.4634 216.39C95.4979 216.374 95.527 216.348 95.547 216.316C95.5671 216.283 95.5773 216.246 95.5764 216.208V213.742C95.5769 213.704 95.5682 213.667 95.551 213.632C95.5338 213.598 95.5085 213.569 95.4774 213.546C95.4436 213.525 95.4044 213.514 95.3644 213.514C95.3245 213.514 95.2853 213.525 95.2515 213.546C94.6999 213.823 94.0901 213.967 93.4717 213.967C92.4971 213.967 92.0592 213.532 92.0592 212.566V206.318H95.4068C95.4668 206.318 95.5242 206.294 95.5666 206.252C95.609 206.21 95.6328 206.153 95.6328 206.094V203.502C95.6345 203.459 95.6233 203.416 95.6008 203.379C95.5783 203.341 95.5451 203.311 95.5057 203.292Z" fill="white"/>
<path d="M79.488 203.012C78.0766 203.037 76.7041 203.476 75.5439 204.274C74.3838 205.071 73.4877 206.192 72.9688 207.494C72.4499 208.796 72.3315 210.221 72.6283 211.59C72.9253 212.959 73.6243 214.21 74.6371 215.185C75.6499 216.16 76.9313 216.816 78.3196 217.07C79.7079 217.324 81.1409 217.164 82.4379 216.611C83.7349 216.058 84.8377 215.137 85.6073 213.963C86.3768 212.79 86.7787 211.416 86.7623 210.016C86.7494 209.082 86.5508 208.16 86.1781 207.302C85.8054 206.445 85.2657 205.668 84.5901 205.018C83.9144 204.367 83.1159 203.855 82.2404 203.511C81.365 203.167 80.4297 202.997 79.488 203.012ZM79.488 214.121C78.9662 214.114 78.4512 214.002 77.9739 213.793C77.4966 213.584 77.0669 213.281 76.7107 212.903C76.3544 212.525 76.079 212.079 75.9008 211.593C75.7227 211.106 75.6458 210.589 75.6744 210.072C75.6416 209.563 75.7144 209.052 75.8883 208.571C76.0622 208.09 76.3334 207.65 76.6855 207.277C77.0375 206.905 77.4627 206.607 77.935 206.404C78.4073 206.2 78.9166 206.095 79.4315 206.094C79.9551 206.097 80.4725 206.205 80.9529 206.412C81.4332 206.618 81.8665 206.919 82.2267 207.296C82.5869 207.673 82.8665 208.118 83.0488 208.605C83.2311 209.091 83.3123 209.61 83.2875 210.128C83.3205 210.642 83.2465 211.157 83.0702 211.641C82.8939 212.126 82.619 212.569 82.2627 212.943C81.9063 213.318 81.4761 213.616 80.9987 213.818C80.5214 214.021 80.0071 214.124 79.488 214.121Z" fill="white"/>
<path d="M64.8409 203.012C64.025 203.007 63.2189 203.188 62.4843 203.54C61.7498 203.892 61.1064 204.406 60.6036 205.043V203.503C60.5999 203.446 60.5745 203.392 60.5325 203.353C60.4906 203.314 60.4351 203.292 60.3775 203.292H57.3125C57.2549 203.292 57.1994 203.314 57.1574 203.353C57.1154 203.392 57.09 203.446 57.0864 203.503V220.593C57.0864 220.652 57.1103 220.709 57.1526 220.751C57.195 220.793 57.2526 220.817 57.3125 220.817H60.3493C60.4092 220.817 60.4667 220.793 60.5091 220.751C60.5515 220.709 60.5752 220.652 60.5752 220.593V215.227C61.0948 215.838 61.7442 216.327 62.4768 216.658C63.2096 216.99 64.0073 217.157 64.8127 217.147C67.9907 217.147 71.2112 214.723 71.2112 210.072C71.2112 205.422 68.0189 203.012 64.8409 203.012ZM67.6658 210.016C67.7187 210.517 67.6662 211.024 67.5118 211.504C67.3572 211.983 67.1041 212.426 66.7682 212.804C66.4324 213.182 66.0212 213.486 65.5606 213.699C65.1 213.911 64.6 214.026 64.0923 214.037C63.5832 214.021 63.0825 213.903 62.6205 213.691C62.1584 213.478 61.7446 213.174 61.404 212.799C61.0635 212.423 60.8032 211.983 60.639 211.505C60.4746 211.026 60.4097 210.52 60.4482 210.016C60.4117 209.514 60.4781 209.009 60.6433 208.532C60.8085 208.056 61.0692 207.617 61.4095 207.243C61.7499 206.869 62.1629 206.567 62.6239 206.355C63.085 206.143 63.5845 206.026 64.0923 206.01C64.6062 206.019 65.1127 206.134 65.5795 206.347C66.0462 206.561 66.463 206.869 66.8031 207.251C67.1433 207.633 67.3995 208.081 67.5553 208.567C67.7112 209.053 67.7633 209.566 67.7082 210.072L67.6658 210.016Z" fill="white"/>
<path d="M50.0948 206.332C46.7048 205.52 46.0975 204.931 46.0975 203.783C46.0975 202.634 47.1569 201.906 48.7389 201.906C50.4351 201.969 52.0633 202.584 53.3717 203.657C53.3979 203.67 53.4269 203.677 53.4564 203.677C53.486 203.677 53.5151 203.67 53.5412 203.657C53.5969 203.646 53.6468 203.616 53.6824 203.573L55.3492 201.247C55.3824 201.205 55.4004 201.154 55.4004 201.1C55.4004 201.047 55.3824 200.995 55.3492 200.953C53.5114 199.461 51.1981 198.667 48.8235 198.712C45.1653 198.712 42.6087 200.897 42.6087 204.007C42.6087 207.355 44.8122 208.546 48.6258 209.456C51.8745 210.198 52.4254 210.857 52.4254 211.935C52.4254 213.014 51.3095 213.925 49.6005 213.925C47.5801 213.911 45.6447 213.117 44.2048 211.711C44.1498 211.693 44.0903 211.693 44.0353 211.711C43.9769 211.725 43.9232 211.754 43.88 211.795L41.9872 213.967C41.9474 214.008 41.9253 214.063 41.9253 214.121C41.9253 214.178 41.9474 214.233 41.9872 214.275C44.0433 216.101 46.7131 217.101 49.4733 217.077C53.4141 217.077 55.9707 214.933 55.9707 211.627C55.9142 208.868 54.2192 207.327 50.0948 206.332Z" fill="white"/>
<path d="M16.1331 192C12.9423 192 9.82308 192.938 7.17004 194.696C4.51696 196.455 2.44914 198.953 1.22807 201.877C0.00698993 204.801 -0.312499 208.018 0.31 211.121C0.932501 214.225 2.46902 217.076 4.72528 219.314C6.98153 221.551 9.85617 223.075 12.9857 223.693C16.1152 224.31 19.359 223.993 22.307 222.782C25.2549 221.571 27.7745 219.52 29.5472 216.889C31.32 214.258 32.2662 211.165 32.2662 208C32.2662 203.757 30.5664 199.687 27.5409 196.686C24.5153 193.686 20.4118 192 16.1331 192ZM23.5366 215.074C23.4679 215.187 23.3772 215.286 23.27 215.364C23.1626 215.442 23.0407 215.498 22.9113 215.529C22.7819 215.56 22.6476 215.565 22.5163 215.544C22.3849 215.523 22.259 215.476 22.146 215.406C18.3606 213.108 13.5966 212.597 7.98287 213.861C7.85516 213.891 7.72268 213.896 7.59311 213.875C7.46354 213.854 7.33945 213.808 7.22805 213.739C7.11666 213.67 7.02017 213.58 6.94419 213.474C6.8682 213.368 6.81424 213.248 6.78543 213.12C6.75482 212.993 6.74986 212.861 6.77084 212.732C6.79182 212.602 6.83833 212.478 6.9077 212.367C6.97707 212.255 7.06794 212.158 7.1751 212.082C7.28227 212.005 7.40363 211.95 7.53222 211.92C13.6739 210.528 18.9528 211.129 23.2018 213.708C23.4285 213.845 23.591 214.066 23.6537 214.322C23.7166 214.579 23.6744 214.849 23.5366 215.074ZM25.5066 210.72C25.3266 210.994 25.0472 211.19 24.7261 211.266C24.4051 211.342 24.0667 211.293 23.7812 211.129C18.8856 208.42 13.1063 207.75 7.71247 209.264C7.54464 209.357 7.35798 209.411 7.1662 209.423C6.97442 209.435 6.78239 209.404 6.60416 209.333C6.42594 209.262 6.26606 209.152 6.13625 209.011C6.00644 208.871 5.90998 208.703 5.85395 208.521C5.79793 208.339 5.78375 208.146 5.81247 207.958C5.84119 207.77 5.91206 207.59 6.0199 207.432C6.12774 207.274 6.26982 207.143 6.43571 207.046C6.60159 206.95 6.78708 206.892 6.97857 206.876C9.98916 206.017 13.1426 205.763 16.2536 206.129C19.3646 206.495 22.3705 207.474 25.0945 209.009C25.3713 209.187 25.5684 209.464 25.645 209.783C25.7217 210.101 25.6721 210.437 25.5066 210.72ZM25.6739 206.187C20.5237 203.122 11.9099 202.841 6.93994 204.335C6.55748 204.45 6.14457 204.41 5.79203 204.223C5.43949 204.037 5.17622 203.719 5.0601 203.339C4.944 202.96 4.98459 202.55 5.17292 202.201C5.36127 201.851 5.68194 201.59 6.0644 201.475C11.7682 199.764 21.2318 200.096 27.219 203.607C27.5268 203.826 27.7404 204.151 27.8173 204.519C27.8942 204.886 27.8288 205.269 27.6341 205.591C27.4393 205.913 27.1296 206.15 26.7663 206.256C26.4031 206.362 26.0131 206.328 25.6739 206.161V206.187Z" fill="#1DD75F"/>
</g>
<defs>
<linearGradient id="paint0_linear_715_19261" x1="16.199" y1="0.00748285" x2="16.199" y2="31.9261" gradientUnits="userSpaceOnUse">
<stop stop-color="#F452FF"/>
<stop offset="1" stop-color="#832BC1"/>
</linearGradient>
<linearGradient id="paint1_linear_715_19261" x1="16.8282" y1="128" x2="16.8282" y2="160" gradientUnits="userSpaceOnUse">
<stop stop-color="#FF7602"/>
<stop offset="1" stop-color="#FF3502"/>
</linearGradient>
<clipPath id="clip0_715_19261">
<rect width="182.746" height="32" fill="white"/>
</clipPath>
<clipPath id="clip1_715_19261">
<rect width="195.728" height="32" fill="white" transform="translate(0 64)"/>
</clipPath>
<clipPath id="clip2_715_19261">
<rect width="174" height="32" fill="white" transform="translate(0 128)"/>
</clipPath>
<clipPath id="clip3_715_19261">
<rect width="127.822" height="32" fill="white" transform="translate(0 192)"/>
</clipPath>
</defs>
</svg>
